<svg width="40" height="40" xmlns="http://www.w3.org/2000/svg">

    <g>
        <title>background</title>
        <rect fill="none" id="canvas_background" height="42" width="42" y="-1" x="-1"/>
    </g>
    <g>
        <title>Layer 1</title>
        <path id="svg_1" d="m19.73913,13.60362l0,-5.20145c0,-0.52035 -0.1992,-1.0407 -0.59555,-1.43909c-0.39636,-0.39636 -0.91671,-0.59352 -1.43705,-0.59352s-1.0407,0.19716 -1.43705,0.59352l-12.79121,12.61844l12.79121,12.6164c0.39636,0.39636 0.91671,0.59555 1.43705,0.59555s1.0407,-0.1992 1.43705,-0.59555s0.59555,-0.91874 0.59555,-1.43705l0,-5.05916c5.58967,0.13822 11.69766,1.15046 16.26087,8.10808l0,-2.03261c0,-9.41708 -7.11413,-17.16132 -16.26087,-18.17355z"/>
    </g>
</svg>