<?xml version="1.0" encoding="iso-8859-1"?>
<!-- Generator: Adobe Illustrator 18.1.1, SVG Export Plug-In . SVG Version: 6.00 Build 0)  -->
<svg version="1.1" id="Capa_1" xmlns="http://www.w3.org/2000/svg" xmlns:xlink="http://www.w3.org/1999/xlink" x="0px" y="0px"
	 viewBox="0 0 27.964 27.964" style="enable-background:new 0 0 27.964 27.964;" xml:space="preserve">
<g>
	<g id="c127_X">
		<path style="fill:#030104;" d="M13.981,0C6.261,0,0,6.259,0,13.979c0,7.724,6.261,13.984,13.981,13.984
			c7.725,0,13.983-6.261,13.983-13.984C27.965,6.259,21.706,0,13.981,0z M13.981,26.531c-6.93,0-12.55-5.62-12.55-12.553
			c0-6.93,5.62-12.548,12.55-12.548c6.931,0,12.553,5.618,12.553,12.548C26.534,20.911,20.912,26.531,13.981,26.531z"/>
		<path style="fill:#030104;" d="M19.994,10.197L17.767,7.97c0,0-3.553,3.783-3.785,3.783c-0.231,0-3.785-3.783-3.785-3.783
			l-2.228,2.228c0,0,3.785,3.472,3.785,3.787c0,0.312-3.785,3.782-3.785,3.782l2.228,2.226c0,0,3.525-3.784,3.785-3.784
			c0.262,0,3.785,3.784,3.785,3.784l2.228-2.226c0,0-3.786-3.528-3.786-3.782C16.208,13.722,19.994,10.197,19.994,10.197z"/>
	</g>
</g>
</svg>
