<svg width="50" height="40" xmlns="http://www.w3.org/2000/svg">
    <!-- Generator: Sketch 52.5 (67469) - http://www.bohemiancoding.com/sketch -->

    <title>people</title>
    <desc>Created with Sketch.</desc>
    <g>
        <title>background</title>
        <rect fill="none" id="canvas_background" height="42" width="52" y="-1" x="-1"/>
    </g>
    <g>
        <title>Layer 1</title>
        <g fill-rule="evenodd" fill="none" id="Icons">
            <g id="Rounded">
                <g id="Social">
                    <g id="-Round-/-Social-/-people">
                        <g id="svg_1">
                            <polygon points="1.972972810268402,-2.8378376960754395 47.05405253171921,-2.8378376960754395 47.05405253171921,42.243245124816895 1.972972810268402,42.243245124816895 " id="Path"/>
                            <path fill="#1D1D1D" id="🔹-Icon-Color" d="m32.02703,17.82432c3.11811,0 5.61635,-2.51703 5.61635,-5.63514c0,-3.11811 -2.49824,-5.63514 -5.61635,-5.63514c-3.11811,0 -5.63514,2.51703 -5.63514,5.63514c0,3.11811 2.51703,5.63514 5.63514,5.63514zm-15.02703,0c3.11811,0 5.61635,-2.51703 5.61635,-5.63514c0,-3.11811 -2.49824,-5.63514 -5.61635,-5.63514c-3.11811,0 -5.63514,2.51703 -5.63514,5.63514c0,3.11811 2.51703,5.63514 5.63514,5.63514zm0,3.75676c-4.37662,0 -13.14865,2.1977 -13.14865,6.57432l0,2.81757c0,1.03311 0.84527,1.87838 1.87838,1.87838l22.54054,0c1.03311,0 1.87838,-0.84527 1.87838,-1.87838l0,-2.81757c0,-4.37662 -8.77203,-6.57432 -13.14865,-6.57432zm15.02703,0c-0.54473,0 -1.16459,0.03757 -1.82203,0.09392c0.03757,0.01878 0.05635,0.05635 0.07514,0.07514c2.14135,1.55905 3.62527,3.64405 3.62527,6.40527l0,2.81757c0,0.65743 -0.13149,1.29608 -0.33811,1.87838l9.73,0c1.03311,0 1.87838,-0.84527 1.87838,-1.87838l0,-2.81757c0,-4.37662 -8.77203,-6.57432 -13.14865,-6.57432z"/>
                        </g>
                    </g>
                </g>
            </g>
        </g>
    </g>
</svg>