<svg width="80px" height="80px" xmlns="http://www.w3.org/2000/svg">
    <g>
        <g fill-rule="evenodd" fill="none" id="Icons">
            <g id="Outlined">
                <g id="Action">
                    <g id="Outlined-/-Action-/-exit_to_app">
                        <g id="svg_1">
                            <polygon points="0.49463093271768344,0.3548382519023221 80.07526229738687,0.3548382519023221 80.07526229738687,79.72043147294607 0.49463093271768344,79.72043147294607 " id="Path"/>
                            <path fill="#1D1D1D" d="m33.95165,51.9094l4.67536,4.66273l16.5793,-16.5345l-16.5793,-16.5345l-4.67536,4.66273l8.55492,8.56487l-32.06436,0l0,6.6138l32.06436,0l-8.55492,8.56487zm29.54431,-41.63386l-46.42203,0c-3.6806,0 -6.63172,2.97621 -6.63172,6.6138l0,13.2276l6.63172,0l0,-13.2276l46.42203,0l0,46.29659l-46.42203,0l0,-13.2276l-6.63172,0l0,13.2276c0,3.63759 2.95111,6.6138 6.63172,6.6138l46.42203,0c3.64745,0 6.63172,-2.97621 6.63172,-6.6138l0,-46.29659c0,-3.63759 -2.98427,-6.6138 -6.63172,-6.6138z"/>
                        </g>
                    </g>
                </g>
            </g>
        </g>
    </g>
</svg>