<svg xmlns="http://www.w3.org/2000/svg" version="1.1" x="0px" y="0px" viewBox="0 0 100 125" enable-background="new 0 0 100 100" xml:space="preserve">
    <g>
        <path d="M19.467,93.239C20.543,97.111,31.408,100,50.032,100s29.424-2.889,30.501-6.761c0.508-1.829-0.4-4.456-2.416-5.42   c2.048-1.001,2.728-3.376,2.349-5.331c-0.586-3.029-4.479-5.495-8.869-8.335c-5.2-3.365-8.091-9.082-2.364-10.632   c0.505-0.164,0.455-1.61,0-1.735c-6.391-0.919-11.154-3.354-11.154-12.982c0-6.971,1.414-9.76,7.132-11.03h0.001   c0.414,0,0.378-1.585-0.036-1.585c-7.719-0.222-8.987-3.432-8.987-7.559c6.244-2.122,10.668-7.36,10.668-13.503   C66.855,7.109,59.292,0,50,0S33.144,7.109,33.144,15.127c0,6.143,4.425,11.381,10.669,13.503c0,4.127-1.269,7.45-8.988,7.672   c-0.414,0-0.45,1.698-0.036,1.698c0.001,0,0.002,0,0.002,0c5.718,1,7.131,3.946,7.131,10.917c0,9.629-4.763,12.007-11.153,12.926   c-0.455,0.125-0.505,1.543,0,1.707c5.727,1.55,2.835,7.253-2.364,10.618c-4.39,2.84-8.283,5.298-8.87,8.327   c-0.378,1.955,0.302,4.327,2.35,5.328C19.867,88.787,18.958,91.41,19.467,93.239z"/>
    </g>
</svg>