<svg width="70" height="70" xmlns="http://www.w3.org/2000/svg">
    <!-- Generator: Sketch 52.5 (67469) - http://www.bohemiancoding.com/sketch -->

    <title>add_circle</title>
    <desc>Created with Sketch.</desc>
    <g>
        <title>background</title>
        <rect fill="none" id="canvas_background" height="72" width="72" y="-1" x="-1"/>
    </g>
    <g>
        <title>Layer 1</title>
        <g fill-rule="evenodd" fill="none" id="Icons">
            <g id="Rounded">
                <g id="Content">
                    <g id="-Round-/-Content-/-add_circle">
                        <g id="svg_1">
                            <polygon points="-0.15930765791368628,0.1620903734449861 68.98659448175204,0.1620903734449861 68.98659448175204,69.30798877745656 -0.15930765791368628,69.30798877745656 " id="Path"/>
                            <path fill="#1D1D1D" id="🔹Icon-Color" d="m34.41364,5.92425c-15.90355,0 -28.81079,12.90722 -28.81079,28.81079c0,15.90355 12.90722,28.81079 28.81079,28.81079c15.90355,0 28.81079,-12.90722 28.81079,-28.81079c0,-15.90355 -12.90722,-28.81079 -28.81079,-28.81079zm11.52432,31.69187l-8.64322,0l0,8.64322c0,1.58459 -1.29649,2.88108 -2.88108,2.88108c-1.58459,0 -2.88108,-1.29649 -2.88108,-2.88108l0,-8.64322l-8.64322,0c-1.58459,0 -2.88108,-1.29649 -2.88108,-2.88108c0,-1.58459 1.29649,-2.88108 2.88108,-2.88108l8.64322,0l0,-8.64322c0,-1.58459 1.29649,-2.88108 2.88108,-2.88108c1.58459,0 2.88108,1.29649 2.88108,2.88108l0,8.64322l8.64322,0c1.58459,0 2.88108,1.29649 2.88108,2.88108c0,1.58459 -1.29649,2.88108 -2.88108,2.88108z"/>
                        </g>
                    </g>
                </g>
            </g>
        </g>
    </g>
</svg>