<svg width="40" height="40" xmlns="http://www.w3.org/2000/svg">
    <!-- Generator: Sketch 52.5 (67469) - http://www.bohemiancoding.com/sketch -->

    <title>add_circle</title>
    <desc>Created with Sketch.</desc>
    <g>
        <title>background</title>
        <rect fill="none" id="canvas_background" height="42" width="42" y="-1" x="-1"/>
    </g>
    <g>
        <title>Layer 1</title>
        <g fill-rule="evenodd" fill="none" id="Icons">
            <g id="Rounded">
                <g id="Content">
                    <g id="-Round-/-Content-/-add_circle">
                        <g id="svg_1">
                            <polygon points="2.8915457129478455,2.753173589706421 36.962466061115265,2.753173589706421 36.962466061115265,36.824092864990234 2.8915457129478455,36.824092864990234 " id="Path"/>
                            <path fill="#1D1D1D" id="🔹Icon-Color" d="m19.927,5.59242c-7.83631,0 -14.19622,6.3599 -14.19622,14.19622c0,7.83631 6.3599,14.19622 14.19622,14.19622c7.83631,0 14.19622,-6.3599 14.19622,-14.19622c0,-7.83631 -6.3599,-14.19622 -14.19622,-14.19622zm5.67849,15.61584l-4.25886,0l0,4.25886c0,0.78079 -0.63883,1.41962 -1.41962,1.41962c-0.78079,0 -1.41962,-0.63883 -1.41962,-1.41962l0,-4.25886l-4.25886,0c-0.78079,0 -1.41962,-0.63883 -1.41962,-1.41962c0,-0.78079 0.63883,-1.41962 1.41962,-1.41962l4.25886,0l0,-4.25886c0,-0.78079 0.63883,-1.41962 1.41962,-1.41962c0.78079,0 1.41962,0.63883 1.41962,1.41962l0,4.25886l4.25886,0c0.78079,0 1.41962,0.63883 1.41962,1.41962c0,0.78079 -0.63883,1.41962 -1.41962,1.41962z"/>
                        </g>
                    </g>
                </g>
            </g>
        </g>
    </g>
</svg>