<svg width="40" height="40" xmlns="http://www.w3.org/2000/svg">
    <!-- Generator: Sketch 52.5 (67469) - http://www.bohemiancoding.com/sketch -->

    <title>add_circle</title>
    <desc>Created with Sketch.</desc>
    <g>
        <title>background</title>
        <rect x="-1" y="-1" width="42" height="42" id="canvas_background" fill="none"/>
    </g>
    <g>
        <title>Layer 1</title>
        <g id="Icons" fill="none" fill-rule="evenodd">
            <g id="Rounded">
                <g id="Content">
                    <g id="-Round-/-Content-/-add_circle">
                        <g id="svg_1">
                            <polygon id="Path" points="-0.15930766200449398,0.16209037131974924 39.834053042296546,0.16209037131974924 39.834053042296546,40.15544891405898 -0.15930766200449398,40.15544891405898 "/>
                            <path d="m19.83737,3.49487c-9.19847,0 -16.6639,7.46542 -16.6639,16.6639c0,9.19847 7.46542,16.6639 16.6639,16.6639c9.19847,0 16.6639,-7.46542 16.6639,-16.6639c0,-9.19847 -7.46542,-16.6639 -16.6639,-16.6639zm6.66556,18.33029l-4.99916,0l0,4.99916c0,0.91651 -0.74988,1.66639 -1.66639,1.66639c-0.91651,0 -1.66639,-0.74988 -1.66639,-1.66639l0,-4.99916l-4.99916,0c-0.91651,0 -1.66639,-0.74988 -1.66639,-1.66639c0,-0.91651 0.74988,-1.66639 1.66639,-1.66639l4.99916,0l0,-4.99916c0,-0.91651 0.74988,-1.66639 1.66639,-1.66639c0.91651,0 1.66639,0.74988 1.66639,1.66639l0,4.99916l4.99916,0c0.91651,0 1.66639,0.74988 1.66639,1.66639c0,0.91651 -0.74988,1.66639 -1.66639,1.66639z" id="🔹Icon-Color" fill="#1D1D1D"/>
                        </g>
                    </g>
                </g>
            </g>
        </g>
    </g>
</svg>