<svg width="50" height="40" xmlns="http://www.w3.org/2000/svg">
    <g>
        <title>background</title>
        <rect x="-1" y="-1" width="52" height="42" id="canvas_background" fill="none"/>
    </g>

    <g>
        <title>Layer 1</title>
        <g id="svg_1">
            <path d="m24.79414,26.51316c-2.77648,0 -5.11458,2.31527 -5.11458,5.06465s2.33809,5.06465 5.11458,5.06465s5.11458,-2.31527 5.11458,-5.06465s-2.33809,-5.06465 -5.11458,-5.06465z" id="svg_2"/>
            <path d="m24.79414,19.27794c-3.50714,0 -6.86815,1.44704 -9.20624,4.05172c-0.58452,0.57882 -0.43839,1.44704 0.14613,2.02586c0.58452,0.57882 1.46131,0.43411 2.04583,-0.1447c1.75357,-2.02586 4.38392,-3.03879 7.01428,-3.03879s5.26071,1.15763 7.01428,3.03879c0.29226,0.28941 0.73065,0.43411 1.02292,0.43411c0.29226,0 0.73065,-0.1447 1.02292,-0.43411c0.58452,-0.57882 0.58452,-1.44704 0.14613,-2.02586c-2.33809,-2.45997 -5.6991,-3.90702 -9.20624,-3.90702l-0.00001,0z" id="svg_3"/>
            <path d="m24.79414,12.04272c-5.40684,0 -10.52141,2.17057 -14.32081,6.07758c-0.58452,0.57882 -0.58452,1.44704 0,2.02586c0.58452,0.57882 1.46131,0.57882 2.04583,0c3.21488,-3.3282 7.5988,-5.20936 12.27498,-5.20936s9.06011,1.88116 12.27498,5.20936c0.29226,0.28941 0.73065,0.43411 1.02292,0.43411c0.29226,0 0.73065,-0.1447 1.02292,-0.43411c0.58452,-0.57882 0.58452,-1.44704 0,-2.02586c-3.7994,-3.90702 -8.91398,-6.07758 -14.32081,-6.07758l-0.00001,0z" id="svg_4"/>
            <path d="m44.22953,13.05565c-5.11458,-5.35406 -11.98272,-8.24815 -19.43539,-8.24815s-14.32081,2.89409 -19.43539,8.24815c-0.58452,0.57882 -0.58452,1.44704 0,2.02586c0.58452,0.57882 1.46131,0.57882 2.04583,0c4.53005,-4.77524 10.81368,-7.37992 17.38956,-7.37992s12.85951,2.60468 17.38956,7.37992c0.29226,0.28941 0.73065,0.43411 1.02292,0.43411c0.29226,0 0.73065,-0.1447 1.02292,-0.43411c0.58452,-0.57882 0.58452,-1.44704 0,-2.02586l-0.00001,0z" id="svg_5"/>
        </g>
    </g>
</svg>