<?xml version="1.0" encoding="UTF-8" standalone="no"?> <svg width="24" height="24" viewBox="0 0 24 24" fill="none" xmlns="http://www.w3.org/2000/svg">
    <path fill-rule="evenodd" clip-rule="evenodd" d="M7.00001 8C7.00001 5.23858 9.23859 3 12 3C14.7614 3 17 5.23858 17 8C17 9.81367 16.0593 11.7311 14.8508 13.4175C14.0494 14.5358 13.1727 15.4939 12.4925 16.1749C12.3119 16.3557 12.146 16.5161 12 16.6541C11.854 16.5161 11.6881 16.3557 11.5075 16.1749C10.8273 15.4939 9.95061 14.5358 9.14923 13.4175C7.94072 11.7311 7.00001 9.81367 7.00001 8ZM19 8C19 9.77764 18.3469 11.5003 17.4944 13H18.614C19.8645 13 20.9839 13.7757 21.423 14.9466L22.923 18.9466C23.6585 20.9079 22.2086 23 20.114 23H3.88602C1.7914 23 0.341558 20.9079 1.07703 18.9466L2.57703 14.9466C3.01612 13.7757 4.13548 13 5.38602 13H6.50561C5.65318 11.5003 5.00001 9.77764 5.00001 8C5.00001 4.13401 8.13402 1 12 1C15.866 1 19 4.13401 19 8ZM11 8C11 7.44772 11.4477 7 12 7C12.5523 7 13 7.44772 13 8C13 8.55228 12.5523 9 12 9C11.4477 9 11 8.55228 11 8ZM12 5C10.3432 5 9.00002 6.34315 9.00002 8C9.00002 9.65685 10.3432 11 12 11C13.6569 11 15 9.65685 15 8C15 6.34315 13.6569 5 12 5ZM11.3567 18.7656L11.3507 18.7605L11.3302 18.7433C11.313 18.7286 11.2884 18.7077 11.2572 18.6807C11.1949 18.6267 11.1057 18.5484 10.9942 18.4477C10.7714 18.2465 10.4588 17.9551 10.0925 17.5883C9.44608 16.9412 8.62368 16.0507 7.83072 15H5.38602C4.96917 15 4.59605 15.2586 4.44969 15.6489L2.94969 19.6489C2.70453 20.3026 3.18781 21 3.88602 21H20.114C20.8122 21 21.2955 20.3026 21.0503 19.6489L19.5503 15.6489C19.404 15.2586 19.0309 15 18.614 15H16.1693C15.3763 16.0507 14.5539 16.9412 13.9075 17.5883C13.5412 17.9551 13.2286 18.2465 13.0058 18.4477C12.8943 18.5484 12.8052 18.6267 12.7428 18.6807C12.7116 18.7077 12.6871 18.7286 12.6698 18.7433L12.6494 18.7605L12.6433 18.7656L12.6404 18.768C12.2696 19.0771 11.7304 19.0771 11.3596 18.768L11.3567 18.7656Z" fill="#293644"/>
</svg>
