<svg viewBox="0 0 100 100" xmlns="http://www.w3.org/2000/svg" class="chess-piece">
	<path d="M72.197 79.558h-1.314c.856-.954 3.21-4.157-.279-7.316-3.435-3.118-9.707-11.307-9.438-18.413h1.379c1.707 0 2.962-1.021 2.962-2.285v-.284c0-1.264-1.255-2.289-2.962-2.289h-1.672v-1.223c5.017-2.566 7.914-6.72 7.914-11.407 0-2.956-2.703-7.464-6.103-11.93l-7.163 5.317c-1.204.889-3.16.889-4.36 0l-.353-.265c-1.2-.888-1.2-2.344 0-3.232l8.367-6.2a162.132 162.132 0 00-4.903-5.495c1.115-.836 1.797-1.983 1.797-3.25.005-2.566-2.802-4.64-6.262-4.64-3.464 0-6.267 2.074-6.267 4.64 0 1.267.687 2.414 1.802 3.25-5.63 6.034-14.65 16.464-14.65 21.805 0 4.817 3.156 9.063 8.174 11.61v1.02h-1.802c-1.702 0-3.216 1.025-3.216 2.289v.284c0 1.264 1.514 2.285 3.216 2.285h1.384c.264 7.106-6.003 15.295-9.443 18.413-3.484 3.159-1.125 6.362-.274 7.316h-1.314c-1.707 0-3.215 1.021-3.215 2.286v2.572c0 1.165 1.154 2.127 2.697 2.267v4.88h45.557v-4.88c1.543-.14 2.698-1.102 2.698-2.267v-2.572c0-1.265-1.255-2.286-2.957-2.286zm0 0"/>
</svg>