<svg height="512" viewBox="0 0 512 512" width="512" xmlns="http://www.w3.org/2000/svg" style="transform: scale(0.85) scaleX(1.2);">
	<g>
		<path d="m333.483 180 14.375-67.085-8.84-5.592c-2.53-1.601-24.085-14.421-68.019-16.904v-30.419h30v-30h-30v-30h-30v30h-30v30h30v30.419c-43.934 2.483-65.488 15.303-68.019 16.904l-8.84 5.592 14.377 67.085z"/><path d="m367.932 392-15.602-18.337c-18.591-21.851-28.83-49.685-28.83-78.375v-55.288h37.5v-30h-210v30h37.5v55.288c0 28.69-10.239 56.524-28.831 78.375l-15.601 18.337z"/><path d="m126.223 422c-2.95 8.331-5.223 18.474-5.223 30 0 32.247 17.761 53.751 18.517 54.651l4.496 5.349h223.975l4.496-5.349c.755-.9 18.516-22.403 18.516-54.651 0-11.525-2.272-21.667-5.225-30z"/>
	</g>
</svg>