<svg id="bold" enable-background="new 0 0 24 24" height="512" viewBox="0 0 24 24" width="512" xmlns="http://www.w3.org/2000/svg">
    <path d="m16.77 16c-.68-2.42-.88-4.97-.58-7.5h-8.38c.31 2.52.11 5.08-.58 7.5z"/>
    <path d="m19.25 21.5h-14.5c-.414 0-.75-.336-.75-.75v-1.5c0-.965.785-1.75 1.75-1.75h12.5c.965 0 1.75.785 1.75 1.75v1.5c0 .414-.336.75-.75.75z"/>
    <path d="m17.25 7h-10.5c-.965 0-1.75-.785-1.75-1.75v-4.5c0-.414.336-.75.75-.75h2.5c.414 0 .75.336.75.75v1.75h1v-1.75c0-.414.336-.75.75-.75h2.5c.414 0 .75.336.75.75v1.75h1v-1.75c0-.414.336-.75.75-.75h2.5c.414 0 .75.336.75.75v4.5c0 .965-.785 1.75-1.75 1.75z"/>
    <path d="m21.25 24h-18.5c-.414 0-.75-.336-.75-.75v-1.5c0-.965.785-1.75 1.75-1.75h16.5c.965 0 1.75.785 1.75 1.75v1.5c0 .414-.336.75-.75.75z"/>
</svg>